<svg width="90" height="59" viewBox="0 0 90 59" fill="none" xmlns="http://www.w3.org/2000/svg">
<path d="M64.0728 38.4563L66.9329 20.7233" stroke="#B1B1B1" stroke-width="4"/>
<path d="M46.4905 54.0785L25.7066 38.8243" stroke="#B1B1B1" stroke-width="4"/>
<path d="M46.3925 53.5693L66.9857 20.582" stroke="#B1B1B1" stroke-width="4"/>
<path d="M46.4061 53.9933L22.762 21.006" stroke="#B1B1B1" stroke-width="4"/>
<path d="M67.2073 21.1513L46.6141 15.431" stroke="#B1B1B1" stroke-width="4"/>
<path d="M46.8057 15.4342L23.1617 21.1546" stroke="#B1B1B1" stroke-width="4"/>
<path d="M60.0813 6.80246L46.9245 15.383" stroke="#B1B1B1" stroke-width="4"/>
<path d="M32.9966 6.15842L46.9161 14.7389" stroke="#B1B1B1" stroke-width="4"/>
<path d="M66.9711 20.9599L59.5346 6.659" stroke="#B1B1B1" stroke-width="4"/>
<path d="M33.112 6.69748L23.3874 20.9984" stroke="#B1B1B1" stroke-width="4"/>
<path d="M23.4484 20.7233L26.3086 38.4563" stroke="#B1B1B1" stroke-width="4"/>
<path d="M46.4675 53.4821L64.2005 38.2279" stroke="#B1B1B1" stroke-width="4"/>
<path d="M46.7161 56.6313C48.2957 56.6313 49.5763 55.3508 49.5763 53.7712C49.5763 52.1916 48.2957 50.911 46.7161 50.911C45.1365 50.911 43.8559 52.1916 43.8559 53.7712C43.8559 55.3508 45.1365 56.6313 46.7161 56.6313Z" fill="#FF0000"/>
<path d="M25.9322 41.3771C27.5118 41.3771 28.7924 40.0966 28.7924 38.5169C28.7924 36.9373 27.5118 35.6568 25.9322 35.6568C24.3526 35.6568 23.072 36.9373 23.072 38.5169C23.072 40.0966 24.3526 41.3771 25.9322 41.3771Z" fill="#FF0000"/>
<path d="M32.7966 9.34323C34.3762 9.34323 35.6568 8.06269 35.6568 6.48306C35.6568 4.90344 34.3762 3.62289 32.7966 3.62289C31.217 3.62289 29.9364 4.90344 29.9364 6.48306C29.9364 8.06269 31.217 9.34323 32.7966 9.34323Z" fill="#FF0000"/>
<path d="M46.3347 17.9237C47.9144 17.9237 49.1949 16.6432 49.1949 15.0636C49.1949 13.4839 47.9144 12.2034 46.3347 12.2034C44.7551 12.2034 43.4746 13.4839 43.4746 15.0636C43.4746 16.6432 44.7551 17.9237 46.3347 17.9237Z" fill="#FF0000"/>
<path d="M67.3093 23.6441C68.8889 23.6441 70.1695 22.3635 70.1695 20.7839C70.1695 19.2043 68.8889 17.9237 67.3093 17.9237C65.7297 17.9237 64.4492 19.2043 64.4492 20.7839C64.4492 22.3635 65.7297 23.6441 67.3093 23.6441Z" fill="#FF0000"/>
<path d="M23.072 23.6441C24.6517 23.6441 25.9322 22.3635 25.9322 20.7839C25.9322 19.2043 24.6517 17.9237 23.072 17.9237C21.4924 17.9237 20.2119 19.2043 20.2119 20.7839C20.2119 22.3635 21.4924 23.6441 23.072 23.6441Z" fill="#FF0000"/>
<path d="M64.4492 41.3771C66.0288 41.3771 67.3093 40.0966 67.3093 38.5169C67.3093 36.9373 66.0288 35.6568 64.4492 35.6568C62.8695 35.6568 61.589 36.9373 61.589 38.5169C61.589 40.0966 62.8695 41.3771 64.4492 41.3771Z" fill="#FF0000"/>
<path d="M59.8729 9.34323C61.4525 9.34323 62.733 8.06269 62.733 6.48306C62.733 4.90344 61.4525 3.62289 59.8729 3.62289C58.2933 3.62289 57.0127 4.90344 57.0127 6.48306C57.0127 8.06269 58.2933 9.34323 59.8729 9.34323Z" fill="#FF0000"/>
</svg>
